<?xml version="1.0" standalone="no"?>
<!DOCTYPE svg PUBLIC "-//W3C//DTD SVG 20010904//EN"
 "http://www.w3.org/TR/2001/REC-SVG-20010904/DTD/svg10.dtd">
<svg version="1.0" xmlns="http://www.w3.org/2000/svg"
 width="96.000000pt" height="96.000000pt" viewBox="0 0 96.000000 96.000000"
 preserveAspectRatio="xMidYMid meet">

<g transform="translate(0.000000,96.000000) scale(0.100000,-0.100000)"
fill="#000000" stroke="none">
<path d="M707 723 c-49 -30 -57 -40 -52 -57 28 -94 4 -177 -66 -223 -76 -50
-191 -37 -243 29 l-23 30 -62 -33 c-33 -19 -61 -37 -61 -40 0 -4 63 -44 141
-88 l141 -82 144 82 144 81 0 169 c0 93 -1 169 -2 168 -2 0 -29 -17 -61 -36z"/>
<path d="M200 165 c0 -61 15 -91 22 -43 2 14 12 24 28 28 53 12 30 80 -27 80
-22 0 -23 -4 -23 -65z m50 19 c0 -8 -7 -14 -15 -14 -15 0 -21 21 -9 33 10 9
24 -2 24 -19z"/>
<path d="M306 214 c-33 -32 -13 -114 27 -114 33 0 47 19 47 61 0 38 -20 69
-45 69 -7 0 -21 -7 -29 -16z m42 -55 c-2 -19 -7 -33 -13 -32 -12 3 -19 49 -10
71 10 26 27 -2 23 -39z"/>
<path d="M400 165 l0 -65 35 0 c19 0 35 5 35 10 0 6 -9 10 -20 10 -18 0 -20 7
-20 55 0 42 -3 55 -15 55 -12 0 -15 -14 -15 -65z"/>
<path d="M480 165 l0 -65 34 0 c41 0 65 24 49 48 -7 12 -7 22 1 35 14 23 -15
47 -56 47 -28 0 -28 0 -28 -65z m58 27 c2 -7 -3 -12 -12 -12 -9 0 -16 7 -16
16 0 17 22 14 28 -4z m2 -57 c0 -8 -7 -15 -15 -15 -8 0 -15 7 -15 15 0 8 7 15
15 15 8 0 15 -7 15 -15z"/>
<path d="M595 170 c-18 -58 -14 -93 6 -57 12 21 35 22 43 2 7 -19 26 -20 26
-2 0 32 -32 117 -44 117 -7 0 -21 -27 -31 -60z m35 0 c0 -11 -4 -20 -9 -20 -5
0 -7 9 -4 20 3 11 7 20 9 20 2 0 4 -9 4 -20z"/>
<path d="M690 165 c0 -37 4 -65 10 -65 6 0 10 17 10 38 l1 37 20 -37 c11 -21
24 -38 29 -38 6 0 10 29 10 65 0 68 -19 93 -21 28 l-1 -38 -15 38 c-25 60 -43
48 -43 -28z"/>
</g>
</svg>
